<?xml version="1.0" standalone="no"?>
<!DOCTYPE svg PUBLIC "-//W3C//DTD SVG 20010904//EN"
 "http://www.w3.org/TR/2001/REC-SVG-20010904/DTD/svg10.dtd">
<svg version="1.0" xmlns="http://www.w3.org/2000/svg"
 width="428.000000pt" height="472.000000pt" viewBox="0 0 428.000000 472.000000"
 preserveAspectRatio="xMidYMid meet">

<g transform="translate(0.000000,472.000000) scale(0.100000,-0.100000)"
fill="#000000" stroke="none">
<path d="M1798 4239 c-21 -12 -26 -103 -6 -115 13 -8 566 -7 579 2 5 3 9 28 9
55 0 44 -3 51 -26 59 -34 13 -534 12 -556 -1z m572 -59 l0 -50 -290 0 -290 0
0 50 0 50 290 0 290 0 0 -50z"/>
<path d="M1823 4213 c-7 -3 -13 -18 -13 -34 l0 -29 270 0 270 0 0 29 c0 16 -6
31 -14 34 -18 7 -496 7 -513 0z"/>
<path d="M1528 3883 c-17 -4 -18 -29 -18 -353 l0 -348 278 -3 c152 -2 409 -2
570 0 l292 3 0 348 c0 302 -2 349 -15 354 -17 6 -1080 5 -1107 -1z"/>
<path d="M1482 2889 c-69 -45 -94 -154 -49 -220 51 -76 123 -97 203 -58 107
51 119 200 22 272 -42 31 -133 34 -176 6z m184 -30 c66 -64 65 -160 -2 -218
-96 -84 -244 -14 -244 115 0 124 157 190 246 103z"/>
<path d="M1499 2863 c-82 -51 -76 -183 10 -228 109 -56 228 60 175 170 -32 68
-123 97 -185 58z"/>
<path d="M2524 2896 c-61 -27 -101 -108 -85 -177 12 -53 38 -86 85 -109 74
-35 131 -24 190 39 24 25 30 42 34 90 4 50 0 66 -18 96 -13 21 -37 46 -54 56
-36 22 -107 24 -152 5z m144 -16 c103 -63 94 -214 -15 -262 -105 -46 -203 22
-203 140 0 109 124 179 218 122z"/>
<path d="M2534 2871 c-125 -57 -79 -251 59 -251 51 0 90 24 117 73 39 68 13
144 -62 183 -36 19 -65 17 -114 -5z"/>
<path d="M1603 2178 c-29 -32 -57 -78 -51 -83 3 -3 19 18 36 46 18 27 36 48
41 45 5 -3 -4 -20 -20 -37 -57 -62 -78 -59 471 -59 542 0 523 -2 480 53 -18
22 -30 27 -83 29 l-62 3 64 5 64 5 31 -47 c17 -26 34 -48 39 -48 10 0 -41 82
-61 98 -12 9 -122 12 -472 12 l-457 0 -20 -22z m755 -5 c-21 -2 -57 -2 -80 0
-24 2 -7 4 37 4 44 0 63 -2 43 -4z"/>
<path d="M1562 2075 c6 -7 1039 -7 1046 0 3 3 -232 5 -523 5 -291 0 -526 -2
-523 -5z"/>
<path d="M1419 1900 c-22 -23 -39 -49 -39 -58 0 -10 14 3 33 30 l32 47 636 1
637 0 31 -47 c17 -27 31 -41 31 -32 0 9 -15 33 -34 55 l-34 39 -627 3 -628 2
-38 -40z"/>
<path d="M1441 1884 c-45 -57 -77 -54 633 -54 465 0 657 3 662 11 3 6 -2 23
-13 37 l-20 27 -621 3 -620 2 -21 -26z"/>
<path d="M1405 1811 c25 -10 1351 -8 1361 2 4 4 -305 7 -687 6 -382 0 -685 -4
-674 -8z"/>
<path d="M2010 1555 c-263 -41 -443 -210 -500 -470 -38 -172 -20 -332 54 -481
76 -152 200 -250 374 -295 63 -16 110 -19 296 -19 142 1 249 6 298 14 92 17
184 63 233 118 l35 38 -2 303 -2 302 -6 -309 -5 -308 -37 -32 c-55 -48 -142
-87 -227 -102 -110 -19 -450 -18 -549 2 -293 59 -463 277 -463 596 0 141 13
203 67 315 75 156 188 251 359 300 50 14 117 18 413 21 l352 3 2 -148 c1 -140
2 -143 9 -63 10 118 1 208 -22 220 -27 15 -577 11 -679 -5z"/>
<path d="M2792 1560 c-22 -9 -22 -12 -20 -157 l3 -148 190 -5 190 -5 3 -465
c1 -255 6 -468 10 -472 4 -4 7 208 7 470 l0 477 5 -470 5 -470 153 -3 c118 -2
152 0 153 10 0 7 4 4 9 -7 5 -13 9 31 11 120 1 77 3 219 5 315 1 96 3 248 3
338 l1 162 188 2 187 2 -185 6 -185 5 180 5 180 5 0 130 0 130 -547 3 -548 2
0 -135 0 -135 183 -3 182 -2 -187 -3 -188 -2 0 145 0 145 563 1 c309 0 553 4
542 8 -29 11 -1065 12 -1093 1z m791 -67 c-134 -2 -352 -2 -485 0 -134 1 -25
2 242 2 267 0 376 -1 243 -2z m-343 -177 c0 -11 -19 -15 -25 -6 -3 5 1 10 9
10 9 0 16 -2 16 -4z m220 0 c0 -3 -4 -8 -10 -11 -5 -3 -10 -1 -10 4 0 6 5 11
10 11 6 0 10 -2 10 -4z"/>
<path d="M2040 1533 c-185 -21 -326 -105 -421 -251 -68 -103 -89 -179 -96
-332 -6 -149 9 -226 65 -340 65 -133 174 -219 342 -272 70 -21 91 -23 315 -23
197 1 252 4 305 18 88 24 145 53 192 98 l39 37 -2 279 c-1 153 -4 284 -7 291
-3 9 -78 12 -327 12 l-322 0 -5 -67 c-2 -38 -2 -95 1 -128 l6 -60 170 -5 170
-6 -180 -4 -180 -4 170 -6 170 -5 8 -55 c13 -92 9 -97 -80 -106 -109 -10 -311
1 -354 19 -106 44 -169 154 -169 298 0 138 60 252 158 301 45 22 57 23 367 28
l320 6 -315 1 c-340 2 -358 0 -425 -52 -81 -61 -119 -164 -113 -303 5 -121 31
-185 96 -243 70 -61 119 -71 337 -67 101 2 177 0 170 -5 -18 -9 -350 -11 -390
-1 -55 13 -123 53 -154 91 -52 63 -73 133 -74 249 0 92 2 107 30 167 17 36 49
83 71 105 68 68 96 73 449 75 l308 2 3 124 c2 93 -1 126 -10 133 -13 8 -569 9
-638 1z m600 -39 c7 -7 10 -43 7 -90 l-3 -79 -2 83 -2 82 -302 0 c-225 0 -318
-4 -363 -14 -68 -16 -86 -13 -28 5 75 23 672 34 693 13z m-800 -69 c-92 -50
-163 -124 -211 -220 -22 -44 -37 -69 -34 -55 28 101 133 228 230 278 83 43 95
40 15 -3z m500 -115 c-298 -5 -306 -6 -355 -30 -127 -62 -184 -163 -195 -345
l-7 -110 -1 91 c-4 192 81 334 230 385 47 16 85 18 343 17 l290 -2 -305 -6z
m-759 -241 c-16 -66 -13 -245 4 -318 46 -192 190 -333 385 -375 36 -8 53 -15
39 -15 -79 -3 -229 70 -305 147 -97 99 -144 232 -144 409 0 93 15 211 26 200
3 -2 0 -24 -5 -48z m1007 -56 c-75 -2 -201 -2 -280 0 -79 1 -17 3 137 3 154 0
218 -2 143 -3z m-431 -125 c-2 -24 -4 -7 -4 37 0 44 2 63 4 43 2 -21 2 -57 0
-80z m580 -280 c-1 -73 -3 -14 -3 132 0 146 2 205 3 133 2 -73 2 -193 0 -265z
m-207 92 l0 -139 -42 -13 c-29 -9 -109 -13 -248 -13 -200 0 -206 1 -261 26
-31 15 -73 43 -93 64 -40 40 -96 146 -95 180 0 11 6 2 13 -20 33 -103 95 -177
185 -219 42 -19 63 -21 256 -21 168 0 216 3 240 15 l30 15 0 125 0 125 -175 5
-175 6 183 2 182 2 0 -140z m-53 -57 c-2 -27 -3 -5 -3 47 0 52 1 74 3 48 2
-27 2 -69 0 -95z m253 -178 c0 -12 -94 -66 -151 -86 -59 -21 -84 -23 -304 -25
l-240 -1 240 7 c140 4 257 13 280 20 54 17 128 55 144 74 13 15 31 22 31 11z"/>
<path d="M3904 1405 c0 -77 2 -107 3 -67 2 40 2 103 0 140 -2 37 -3 4 -3 -73z"/>
<path d="M590 1480 c-100 -17 -181 -71 -225 -151 -28 -51 -30 -60 -30 -164 0
-121 9 -150 69 -213 73 -79 132 -93 421 -101 217 -5 243 -8 275 -26 49 -30 74
-78 74 -143 -1 -61 -21 -95 -75 -127 -32 -19 -55 -20 -401 -23 l-368 -3 0 -85
0 -85 403 3 c388 3 404 4 458 26 125 50 189 141 197 279 6 115 -16 182 -84
250 -79 80 -134 93 -385 93 -231 0 -287 9 -337 54 -30 28 -36 40 -39 87 -5 73
18 117 77 147 44 22 49 22 446 22 399 0 403 0 409 21 7 21 89 128 109 141 14
10 -936 8 -994 -2z"/>
<path d="M2272 1073 c92 -2 245 -2 340 0 95 1 20 3 -167 3 -187 0 -265 -2
-173 -3z"/>
<path d="M2094 925 c0 -77 2 -107 3 -67 2 40 2 103 0 140 -2 37 -3 4 -3 -73z"/>
<path d="M3263 293 c42 -2 112 -2 155 0 42 1 7 3 -78 3 -85 0 -120 -2 -77 -3z"/>
</g>
</svg>
